<?xml version="1.0" encoding="UTF-8"?>
<svg version="1.1" xmlns="http://www.w3.org/2000/svg" width="512" height="512">
<path d="M0 0 C1.2375 0.85078125 1.2375 0.85078125 2.5 1.71875 C7.51651546 5.34912303 11.85284135 9.04604316 14 15 C14.91535282 21.23861823 14.66419115 26.6932404 11 32 C6.82594682 36.84872432 2.0755481 39.34962506 -3.59765625 42.203125 C-4.58766129 42.7102301 -5.57766632 43.21733521 -6.59767151 43.73980713 C-10.05868753 45.50608696 -13.52845383 47.25455631 -17 49 C-18.34027653 49.6754454 -19.68050537 50.35098544 -21.02069092 51.02661133 C-30.70203452 55.90402948 -40.3997519 60.74841265 -50.10150146 65.58508301 C-54.05215338 67.55519621 -58.00160375 69.52771525 -61.95117188 71.5 C-69.63297588 75.33561805 -77.31605182 79.16867921 -85 83 C-82.07173857 85.35894207 -79.17411252 87.63016628 -76.015625 89.671875 C-75.25773682 90.16341064 -74.49984863 90.65494629 -73.71899414 91.16137695 C-72.90422607 91.68562256 -72.08945801 92.20986816 -71.25 92.75 C-69.95727173 93.58567505 -69.95727173 93.58567505 -68.63842773 94.43823242 C-65.76129667 96.29582117 -62.88097486 98.14837881 -60 100 C-58.95408691 100.67305176 -57.90817383 101.34610352 -56.83056641 102.03955078 C-50.4670839 106.13234225 -44.09517225 110.21155406 -37.71191406 114.2734375 C-36.05880474 115.32590321 -34.40681527 116.38013406 -32.75683594 117.4375 C-20.83533024 125.21518301 -20.83533024 125.21518301 -7 127 C-3.65495574 126.03697071 -3.65495574 126.03697071 -0.28515625 124.55078125 C0.35364975 124.28429276 0.99245575 124.01780426 1.65061951 123.74324036 C9.46961785 120.44653648 17.19261789 116.92215841 24.91079712 113.39758301 C27.63355424 112.15507498 30.35876977 110.91810998 33.0847168 109.68261719 C40.49898918 106.32155753 47.91144057 102.95660146 55.31445312 99.57080078 C123.46379142 68.41163068 123.46379142 68.41163068 155.5078125 78.6171875 C162.26196259 81.29164962 168.65215047 84.47602619 175 88 C175.7523291 88.41652832 176.5046582 88.83305664 177.27978516 89.26220703 C179.5919946 90.55450906 181.89217293 91.86546701 184.1875 93.1875 C184.89438965 93.5911377 185.6012793 93.99477539 186.32958984 94.41064453 C192.15759641 97.84789015 197.04668521 101.74313758 200 108 C200.91324336 113.94369223 201.02082308 120.12588368 198.0625 125.5 C196.02493693 128.0893273 194.15252662 129.69236036 191.25390625 131.2421875 C190.45557373 131.66918945 189.65724121 132.09619141 188.8347168 132.53613281 C182.87235868 135.61513542 176.88137529 138.63307897 170.875 141.625 C170.1632663 141.98025757 169.45153259 142.33551514 168.7182312 142.70153809 C159.32408883 147.38922916 149.90123842 152.00658137 140.41503906 156.50561523 C130.61623793 161.1602998 120.87225782 165.92614317 111.125 170.6875 C109.33433782 171.5617434 107.54364769 172.43592954 105.75292969 173.31005859 C104.86751495 173.74227722 103.98210022 174.17449585 103.06985474 174.61981201 C101.74556961 175.26626678 101.74556961 175.26626678 100.39453125 175.92578125 C99.51272186 176.3562677 98.63091248 176.78675415 97.72238159 177.23028564 C95.14828285 178.48691539 92.57414618 179.74346742 90 181 C89.22605896 181.3778363 88.45211792 181.75567261 87.65472412 182.1449585 C79.40442399 186.17201055 71.14907402 190.18801802 62.87573242 194.16755676 C59.56143213 195.76217245 56.25080963 197.36369425 52.94677734 198.97949219 C15.52618245 217.26287791 -16.09299254 215.39793197 -56.86399746 212.20592427 C-61.95429724 211.80951209 -67.04546715 211.42458324 -72.13653564 211.03819275 C-80.65584243 210.39003712 -89.17454955 209.73445922 -97.69287109 209.07348633 C-109.69855136 208.14194041 -121.70532485 207.22511396 -133.71231413 206.31061947 C-142.06616243 205.67377288 -150.41972838 205.03323573 -158.77325153 204.39214015 C-160.78966215 204.23743345 -162.80608253 204.0828539 -164.82251263 203.92840123 C-170.55452599 203.4892879 -176.28635409 203.04789697 -182.01790047 202.60272789 C-183.75003394 202.46851874 -185.4822269 202.33507484 -187.21448326 202.20246124 C-189.58202509 202.02104813 -191.94932724 201.83677106 -194.31658936 201.65174866 C-194.99760767 201.60018822 -195.67862598 201.54862779 -196.38028121 201.49550492 C-200.62213872 201.15998088 -204.79598611 200.63936944 -209 200 C-208.96519531 200.64066406 -208.93039063 201.28132812 -208.89453125 201.94140625 C-208.71462411 207.68986785 -208.97574536 211.92705674 -212 217 C-216.00102458 221.18073963 -219.25746829 223.87504562 -225.23014832 224.14717102 C-226.580712 224.16225987 -227.93134451 224.17178883 -229.28198242 224.17700195 C-230.38990143 224.18685875 -230.38990143 224.18685875 -231.52020264 224.19691467 C-233.96529242 224.21662815 -236.41032075 224.2283075 -238.85546875 224.23828125 C-239.69223963 224.24235678 -240.52901051 224.2464323 -241.39113808 224.25063133 C-245.82236102 224.27148636 -250.25355306 224.28578906 -254.68481445 224.29516602 C-259.25000559 224.30621361 -263.81470704 224.3405958 -268.37972546 224.38033772 C-271.89975354 224.40655341 -275.41966598 224.41486235 -278.9397831 224.41844749 C-280.62181203 224.42330271 -282.30383617 224.43488625 -283.98576927 224.45348549 C-300.37463963 224.62341486 -300.37463963 224.62341486 -307 220 C-311.70821639 215.05033662 -312.14883266 211.01098514 -312.14717102 204.42851257 C-312.15084771 203.65022419 -312.1545244 202.87193581 -312.1583125 202.07006294 C-312.16935358 199.45384717 -312.17319388 196.83767113 -312.17700195 194.22143555 C-312.18326621 192.34897739 -312.18991298 190.47652048 -312.19691467 188.60406494 C-312.2143261 183.51103127 -312.22487653 178.41800699 -312.2331202 173.32495093 C-312.23826939 170.14404433 -312.24434512 166.96314064 -312.25063133 163.7822361 C-312.26968264 153.83287346 -312.28391468 143.88351824 -312.2922433 133.93414086 C-312.30202063 122.44349106 -312.32835339 110.95303363 -312.36874419 99.46245164 C-312.39888312 90.58423754 -312.41371001 81.70607867 -312.41702431 72.8278144 C-312.41937705 67.52349142 -312.42836685 62.21937399 -312.45348549 56.91510582 C-312.47673271 51.92545066 -312.48101291 46.93613689 -312.47072411 41.94644165 C-312.47022784 40.11547016 -312.47657487 38.28448205 -312.49028015 36.45356178 C-312.50795188 33.952777 -312.50091682 31.45322368 -312.48774719 28.95243835 C-312.49871644 28.22879064 -312.50968568 27.50514292 -312.52098733 26.75956649 C-312.45691281 21.71609115 -311.1367766 18.89948684 -308 15 C-302.95262767 10.44505424 -299.13365732 9.84642748 -292.53442383 9.80712891 C-291.39724411 9.79486267 -291.39724411 9.79486267 -290.23709106 9.78234863 C-287.72707908 9.75752951 -285.21712362 9.7409855 -282.70703125 9.7265625 C-281.41877725 9.71857698 -281.41877725 9.71857698 -280.10449791 9.71043015 C-275.55657214 9.6837107 -271.00867368 9.66433398 -266.46069336 9.64990234 C-262.70393455 9.63657589 -258.94772056 9.6087459 -255.19116211 9.56787109 C-250.64888974 9.51845053 -246.10711065 9.49376959 -241.56458092 9.48667526 C-239.83787336 9.47997864 -238.11117613 9.46479802 -236.38462257 9.44078445 C-220.09906937 9.22724408 -220.09906937 9.22724408 -214.36283875 13.58285522 C-209.56620849 18.5706203 -208.7796826 23.17300287 -208.75 30 C-208.82693294 32.00025643 -208.90923355 34.00032355 -209 36 C-208.28457031 35.81896729 -207.56914062 35.63793457 -206.83203125 35.45141602 C-201.46001175 34.09928983 -196.08397617 32.77854286 -190.6875 31.52734375 C-161.71497377 24.71154993 -135.112913 13.729556 -108.19335938 1.23291016 C-71.78242108 -15.65182289 -35.50829257 -25.29965846 0 0 Z M-98.5 17.0625 C-133.8868913 34.38681259 -170.34894264 46.26978853 -209 54 C-209 96.24 -209 138.48 -209 182 C-172.82175438 184.95332617 -136.64235381 187.85973276 -100.45028496 190.63119125 C-91.47551878 191.31854904 -82.50125322 192.01186374 -73.52752483 192.71264338 C-67.07914072 193.21570356 -60.63025096 193.71192546 -54.18096745 194.20331883 C-50.38279071 194.49289514 -46.58487715 194.7851822 -42.78750229 195.0851059 C-3.68719377 198.62775054 -3.68719377 198.62775054 33.375 188 C34.60800106 187.4168119 35.84132378 186.83430344 37.07495117 186.25244141 C45.44910174 182.2873017 53.75344482 178.18281094 62.02368164 174.00561523 C68.08383206 170.94507184 74.17975651 167.97464677 80.3125 165.0625 C91.28754444 159.84724274 102.20732122 154.52153583 113.125 149.1875 C136.0248547 138.00239419 158.9410971 126.85462677 182 116 C182 115.01 182 114.02 182 113 C178.40217294 110.9202418 174.79479594 108.85837243 171.1784668 106.81103516 C169.95514549 106.11542422 168.73433439 105.41537595 167.51635742 104.71044922 C156.40145962 98.28443408 145.35244035 93.18568233 132.25 93.5 C130.97394897 93.52030273 130.97394897 93.52030273 129.67211914 93.54101562 C117.71176359 93.9242104 107.083941 96.92600216 96.140625 101.6328125 C95.31898361 101.98268219 94.49734222 102.33255188 93.65080261 102.69302368 C85.64111562 106.12024116 77.68989524 109.67557258 69.7539978 113.26974487 C67.22639742 114.41397825 64.69701557 115.55419609 62.16723633 116.69360352 C53.99015038 120.37855398 45.82000101 124.0781676 37.66188049 127.80493164 C34.04251976 129.4571212 30.42039094 131.10318812 26.79794312 132.74859619 C25.0773116 133.53224298 23.35805521 134.3189172 21.64028931 135.10882568 C5.88165512 142.35454461 -8.7245611 148.64271382 -26.1328125 142.77734375 C-34.42479225 139.26405733 -41.89326557 133.732583 -49.35498047 128.76025391 C-52.98405975 126.34511069 -56.64778928 123.98552875 -60.3125 121.625 C-61.66550937 120.74761907 -63.01836843 119.8700063 -64.37109375 118.9921875 C-70.19176419 115.22303276 -76.03386583 111.48733039 -81.875 107.75 C-82.90923096 107.08822754 -83.94346191 106.42645508 -85.0090332 105.74462891 C-87.01765871 104.46007465 -89.02988372 103.18112917 -91.04589844 101.90820312 C-93.05578228 100.60991783 -95.03791742 99.26787032 -96.99316406 97.88867188 C-97.94674805 97.22931641 -98.90033203 96.56996094 -99.8828125 95.890625 C-100.72473145 95.28766602 -101.56665039 94.68470703 -102.43408203 94.06347656 C-105.0079988 92.713404 -105.0079988 92.713404 -107.92944336 93.61791992 C-111.10660052 95.04798168 -114.1798925 96.56723066 -117.24609375 98.22265625 C-118.42495058 98.84994707 -119.60399278 99.47688961 -120.78320312 100.10351562 C-122.61311897 101.08239913 -124.44113395 102.06446861 -126.26586914 103.05297852 C-128.04606471 104.01482554 -129.83294054 104.96320512 -131.62109375 105.91015625 C-133.20555298 106.76299194 -133.20555298 106.76299194 -134.82202148 107.63305664 C-138.29444346 109.12664892 -141.2349702 109.74197541 -145 110 C-147.94755732 108.65437601 -149.54277272 107.91445456 -151 105 C-151.58250445 98.70895198 -151.58250445 98.70895198 -149.31860352 95.95361328 C-146.84247789 93.86727473 -144.50051203 92.53056584 -141.58984375 91.1171875 C-139.97819336 90.32441406 -139.97819336 90.32441406 -138.33398438 89.515625 C-137.21314453 88.97421875 -136.09230469 88.4328125 -134.9375 87.875 C-127.3905346 84.19533949 -119.90649532 80.44138482 -112.49316406 76.50097656 C-101.31848265 70.59356601 -90.01792488 64.94556893 -78.70703125 59.3046875 C-76.53691429 58.22056445 -74.36688729 57.13626132 -72.19694519 56.05178833 C-66.554286 53.23234508 -60.91042887 50.41530843 -55.26629639 47.59881592 C-49.4795226 44.71059332 -43.69391596 41.82003464 -37.90820312 38.9296875 C-26.60659327 33.28420479 -15.3037528 27.64119064 -4 22 C-6.6212871 16.23242369 -11.66839873 14.10253075 -17 11 C-17.78761719 10.53078125 -18.57523438 10.0615625 -19.38671875 9.578125 C-46.13196588 -5.13403132 -73.09834193 4.58958743 -98.5 17.0625 Z M-294 28 C-294 86.74 -294 145.48 -294 206 C-271.89 206 -249.78 206 -227 206 C-227 147.26 -227 88.52 -227 28 C-249.11 28 -271.22 28 -294 28 Z " fill="#000000" transform="translate(312,280)"/>
<path d="M0 0 C0.88171875 0.73605469 1.7634375 1.47210938 2.671875 2.23046875 C21.61498434 18.6317767 35.09981816 41.42836754 42.375 65.25 C42.73307739 66.41813232 42.73307739 66.41813232 43.09838867 67.60986328 C46.53360949 79.53436579 47.38246655 91.38528537 47.3125 103.75 C47.31001251 104.45476471 47.30752502 105.15952942 47.30496216 105.88565063 C47.24699633 116.51568075 46.89373008 126.70438721 44 137 C43.7848877 137.78777832 43.56977539 138.57555664 43.34814453 139.38720703 C37.9075597 158.70811624 29.19433993 176.78958089 16 192 C15.54544434 192.5352832 15.09088867 193.07056641 14.62255859 193.62207031 C-8.29396395 220.46152416 -41.72454613 237.97057627 -77 241 C-97.92894023 241.98660087 -117.27245043 240.08659548 -137 233 C-138.49853516 232.46439453 -138.49853516 232.46439453 -140.02734375 231.91796875 C-153.8926549 226.53541312 -166.98607336 218.99442812 -178 209 C-178.98355469 208.14664063 -179.96710938 207.29328125 -180.98046875 206.4140625 C-207.77909472 182.91156971 -223.94440547 149.48766775 -226.67993164 114.00170898 C-228.9105323 76.1143612 -216.46212968 40.07029162 -191.38085938 11.60766602 C-141.78927333 -42.98019808 -55.72529227 -47.72601644 0 0 Z M-127 -9 C-128.05574219 -8.65195312 -129.11148438 -8.30390625 -130.19921875 -7.9453125 C-143.38055912 -3.24348137 -155.51390118 3.7355826 -166 13 C-166.94101562 13.78632812 -167.88203125 14.57265625 -168.8515625 15.3828125 C-180.28106682 25.27656947 -189.44983348 37.35729648 -196 51 C-196.63808594 52.26457031 -196.63808594 52.26457031 -197.2890625 53.5546875 C-210.66982862 81.21921623 -212.2188698 114.10243187 -202.3046875 143.109375 C-196.19090096 159.89883457 -186.96313832 173.84241417 -175 187 C-174.14728516 187.97646484 -174.14728516 187.97646484 -173.27734375 188.97265625 C-153.7065342 210.14516889 -123.16521529 222.02323047 -94.796875 223.28125 C-61.35293247 224.15829783 -30.403753 211.85774394 -6 189 C3.55472952 179.44527048 10.9011806 169.02775525 17 157 C17.43183594 156.14921875 17.86367188 155.2984375 18.30859375 154.421875 C26.00466195 138.40638104 29.39630967 121.91628102 29.3125 104.1875 C29.30758545 102.95354492 29.3026709 101.71958984 29.29760742 100.44824219 C29.18345754 91.57147904 28.46092565 83.56322097 26 75 C25.68289063 73.7521875 25.36578125 72.504375 25.0390625 71.21875 C20.76597755 55.31633333 12.58252844 40.56007164 2 28 C1.19304687 27.01902344 0.38609375 26.03804687 -0.4453125 25.02734375 C-20.32084801 1.65567514 -49.75793471 -12.03814294 -79.98291016 -14.84326172 C-96.10362538 -16.09592441 -111.68275954 -14.09980299 -127 -9 Z " fill="#000000" transform="translate(465,41)"/>
<path d="M0 0 C2.9375 1.6875 2.9375 1.6875 5 5 C5.41221923 9.36529599 5.28795913 13.62942031 5 18 C6.2375 18.061875 7.475 18.12375 8.75 18.1875 C18.3196106 19.27255821 26.82758906 23.71441644 34 30 C34.60457031 30.50015625 35.20914063 31.0003125 35.83203125 31.515625 C42.44007988 37.44703248 47.55025865 46.47352083 48.16796875 55.4375 C48.17441406 56.283125 48.18085938 57.12875 48.1875 58 C48.20167969 58.845625 48.21585937 59.69125 48.23046875 60.5625 C47.98215717 63.18871064 47.38576365 64.77094245 46 67 C42.77706714 69.3020949 39.88003676 69.47510654 36 69 C33.3125 67.75 33.3125 67.75 31 65 C30.07845284 61.99420601 29.40486283 58.97641974 28.73046875 55.90625 C27.00271185 49.03217976 22.50964773 45.04614755 17 41 C13.04 39.35 9.08 37.7 5 36 C5 52.5 5 69 5 86 C8.63 86.66 12.26 87.32 16 88 C28.57284609 92.23700308 38.7480887 100.37256789 44.875 112.1875 C48.75853852 120.14746803 49.33286589 129.41500218 47.28125 138.01171875 C46.32868255 140.76571415 45.24803462 143.36755612 44 146 C43.50886719 147.06154297 43.50886719 147.06154297 43.0078125 148.14453125 C37.94557932 157.51151016 27.78352996 164.30399979 18 168 C14.03024283 169.16314356 10.04668552 170.14477265 6 171 C5.96132813 172.33804688 5.96132813 172.33804688 5.921875 173.703125 C5.83679688 175.45882812 5.83679688 175.45882812 5.75 177.25 C5.70359375 178.41015625 5.6571875 179.5703125 5.609375 180.765625 C4.89881283 184.53707037 4.0895472 185.7746618 1 188 C-1.21875 188.53125 -1.21875 188.53125 -3.5 188.5 C-4.2528125 188.5103125 -5.005625 188.520625 -5.78125 188.53125 C-8.93179207 187.77689486 -10.06126599 186.57935916 -12 184 C-12.828125 180.765625 -12.828125 180.765625 -13.25 177.25 C-13.39953125 176.07953125 -13.5490625 174.9090625 -13.703125 173.703125 C-13.85007812 172.36507812 -13.85007812 172.36507812 -14 171 C-15.54107422 170.58041016 -15.54107422 170.58041016 -17.11328125 170.15234375 C-31.14416476 166.16583425 -42.877168 160.38285726 -50.56640625 147.34375 C-53.6215822 141.42489062 -55.15363998 136.68884314 -55.3125 130 C-55.34988281 128.96875 -55.38726562 127.9375 -55.42578125 126.875 C-54.8950941 123.29164454 -53.81934526 122.19735589 -51 120 C-47.26290192 118.78138106 -45.48125532 118.83341162 -41.75 120.125 C-37.46164547 123.04887809 -37.23959427 125.93893964 -36.125 130.875 C-34.34960266 138.0303893 -31.25423365 142.24516664 -25.48828125 146.640625 C-21.89383696 148.60430885 -17.8856757 149.70477477 -14 151 C-13.67 134.83 -13.34 118.66 -13 102 C-15.64 101.67 -18.28 101.34 -21 101 C-28.55002437 98.63117985 -35.05784857 95.20743856 -41 90 C-41.90685547 89.24976563 -41.90685547 89.24976563 -42.83203125 88.484375 C-49.37316695 82.6130288 -54.62579042 73.40456791 -55.23828125 64.55859375 C-55.57374737 52.15541388 -53.23314629 43.57528936 -45 34 C-44.52175781 33.40445313 -44.04351562 32.80890625 -43.55078125 32.1953125 C-36.91008272 24.66807235 -26.58900892 20.31809768 -17 18 C-15.68 18 -14.36 18 -13 18 C-13.02320313 17.33613281 -13.04640625 16.67226562 -13.0703125 15.98828125 C-13.28559335 5.45489657 -13.28559335 5.45489657 -9.3125 1.1875 C-5.95694997 -0.53562029 -3.71982635 -0.52208089 0 0 Z M-31.046875 45.0390625 C-32.5140914 46.978403 -33.80797508 48.88179744 -35 51 C-35.36867188 51.64453125 -35.73734375 52.2890625 -36.1171875 52.953125 C-38.18927301 57.75742945 -37.83104008 62.84498352 -35.97265625 67.6640625 C-30.55037572 77.6074135 -23.53520333 80.48826556 -13 84 C-13 68.49 -13 52.98 -13 37 C-19.70246558 37 -26.29069288 40.30103375 -31.046875 45.0390625 Z M5 105 C5 120.51 5 136.02 5 152 C14.60952209 149.86455065 21.62730946 147.23954833 27.0625 138.75 C29.76403541 133.94299749 30.67113851 129.49741395 30 124 C27.97020352 116.90942716 22.86317033 112.18797881 17 108 C12.98471369 105.89003409 9.58790568 105 5 105 Z " fill="#000000" transform="translate(379,51)"/>
</svg>
